<svg width="1600" height="480" viewBox="0 0 1600 480" fill="none" xmlns="http://www.w3.org/2000/svg">
  <defs>
    <linearGradient id="bg" x1="48" y1="24" x2="1510" y2="470" gradientUnits="userSpaceOnUse">
      <stop stop-color="#0E2E21"/>
      <stop offset="1" stop-color="#091A13"/>
    </linearGradient>
    <linearGradient id="glowA" x1="240" y1="60" x2="720" y2="380" gradientUnits="userSpaceOnUse">
      <stop stop-color="#5EDB9D" stop-opacity="0.32"/>
      <stop offset="1" stop-color="#5EDB9D" stop-opacity="0"/>
    </linearGradient>
    <linearGradient id="glowB" x1="1030" y1="40" x2="1450" y2="340" gradientUnits="userSpaceOnUse">
      <stop stop-color="#FFD67A" stop-opacity="0.24"/>
      <stop offset="1" stop-color="#FFD67A" stop-opacity="0"/>
    </linearGradient>
    <linearGradient id="pill" x1="0" y1="0" x2="328" y2="56" gradientUnits="userSpaceOnUse">
      <stop stop-color="#26A867"/>
      <stop offset="1" stop-color="#1A7B4C"/>
    </linearGradient>
  </defs>

  <rect width="1600" height="480" rx="36" fill="url(#bg)"/>
  <circle cx="330" cy="180" r="250" fill="url(#glowA)"/>
  <circle cx="1260" cy="146" r="220" fill="url(#glowB)"/>

  <g opacity="0.14">
    <path d="M120 392L430 182L596 314L860 126L1140 302L1450 106" stroke="#8CE8B7" stroke-width="4" stroke-linecap="round"/>
    <circle cx="430" cy="182" r="9" fill="#8CE8B7"/>
    <circle cx="596" cy="314" r="9" fill="#8CE8B7"/>
    <circle cx="860" cy="126" r="9" fill="#8CE8B7"/>
    <circle cx="1140" cy="302" r="9" fill="#8CE8B7"/>
  </g>

  <g>
    <rect x="98" y="84" width="328" height="56" rx="28" fill="url(#pill)"/>
    <text x="262" y="120" text-anchor="middle" fill="#F2FFF7" font-size="24" font-weight="700" font-family="Manrope, Segoe UI, Arial, sans-serif">Desktop App v0.5.0</text>

    <text x="98" y="238" fill="#F4FFF8" font-size="76" font-weight="800" font-family="Manrope, Segoe UI, Arial, sans-serif">Swedish Secondhand AI</text>
    <text x="98" y="292" fill="#B5DCC5" font-size="30" font-weight="500" font-family="Manrope, Segoe UI, Arial, sans-serif">Guided valuation and listing workflows for Tradera, Blocket, and Vinted</text>
  </g>

  <g transform="translate(1238,102)">
    <rect width="254" height="254" rx="58" fill="#123A29"/>
    <path d="M52 44H144L202 102V196C202 215.882 185.882 232 166 232H88C68.1177 232 52 215.882 52 196V80C52 60.1178 68.1177 44 88 44Z" fill="#EBFFF3"/>
    <path d="M144 44V86C144 94.8366 151.163 102 160 102H202" stroke="#D0F4E0" stroke-width="8"/>
    <circle cx="96" cy="102" r="13" fill="#159156"/>
    <path d="M126 143C137.435 132.057 150.666 126.704 165.691 126.704C180.717 126.704 193.948 132.057 205.383 143V160C205.383 166.627 200.01 172 193.383 172H138C131.373 172 126 166.627 126 160V143Z" fill="#0E6A41"/>
    <path d="M139 173H194V190C194 202.15 184.15 212 172 212H161C148.85 212 139 202.15 139 190V173Z" fill="#1A8F56"/>
    <path d="M160 157H173" stroke="#E8FFF2" stroke-width="8" stroke-linecap="round"/>
    <path d="M216 38L221.6 53.4L237 59L221.6 64.6L216 80L210.4 64.6L195 59L210.4 53.4L216 38Z" fill="#F8B64B"/>
  </g>
</svg>
